<svg xmlns="http://www.w3.org/2000/svg" xmlns:xlink="http://www.w3.org/1999/xlink" width="1920" zoomAndPan="magnify" viewBox="0 0 1440 809.999993" height="1080" preserveAspectRatio="xMidYMid meet" version="1.0"><defs><clipPath id="88aff5c88c"><path d="M 564.480469 243 L 875.730469 243 L 875.730469 554 L 564.480469 554 Z M 564.480469 243 " clip-rule="nonzero"/></clipPath><clipPath id="0221d64e94"><path d="M 848.867188 311.503906 C 845.589844 306.625 842.046875 301.945312 838.238281 297.472656 C 834.429688 292.996094 830.375 288.753906 826.082031 284.742188 C 821.785156 280.730469 817.277344 276.972656 812.550781 273.476562 C 807.828125 269.980469 802.921875 266.761719 797.828125 263.824219 C 792.738281 260.886719 787.496094 258.246094 782.101562 255.910156 C 776.707031 253.570312 771.199219 251.542969 765.574219 249.832031 C 759.949219 248.121094 754.246094 246.738281 748.464844 245.679688 C 742.679688 244.617188 736.855469 243.890625 730.988281 243.496094 L 723.910156 243 L 723.910156 296.015625 L 729.898438 296.59375 C 733.53125 296.945312 737.132812 297.492188 740.707031 298.226562 C 744.285156 298.964844 747.808594 299.890625 751.285156 301.003906 C 754.761719 302.121094 758.167969 303.414062 761.503906 304.890625 C 764.839844 306.371094 768.089844 308.019531 771.25 309.84375 C 774.414062 311.667969 777.46875 313.65625 780.414062 315.804688 C 783.363281 317.953125 786.191406 320.253906 788.894531 322.707031 C 791.597656 325.15625 794.160156 327.746094 796.585938 330.472656 C 799.011719 333.195312 801.289062 336.042969 803.410156 339.011719 L 806.898438 343.96875 L 812.09375 340.960938 L 846.699219 321.007812 L 852.851562 317.386719 Z M 737.144531 284.160156 L 737.144531 257.347656 C 741.894531 257.910156 746.605469 258.707031 751.273438 259.746094 C 755.945312 260.785156 760.550781 262.058594 765.089844 263.5625 C 769.628906 265.070312 774.082031 266.800781 778.445312 268.761719 C 782.808594 270.71875 787.0625 272.894531 791.207031 275.285156 C 795.347656 277.675781 799.359375 280.269531 803.238281 283.066406 C 807.117188 285.863281 810.847656 288.851562 814.421875 292.027344 C 817.996094 295.203125 821.402344 298.554688 824.636719 302.074219 C 827.871094 305.597656 830.917969 309.273438 833.78125 313.105469 L 810.539062 326.511719 C 808.285156 323.683594 805.90625 320.964844 803.398438 318.359375 C 800.890625 315.753906 798.265625 313.269531 795.523438 310.910156 C 792.785156 308.546875 789.9375 306.320312 786.988281 304.230469 C 784.039062 302.136719 780.996094 300.183594 777.863281 298.375 C 774.730469 296.570312 771.519531 294.910156 768.230469 293.402344 C 764.941406 291.898438 761.585938 290.546875 758.171875 289.355469 C 754.757812 288.164062 751.292969 287.132812 747.78125 286.265625 C 744.265625 285.398438 740.722656 284.695312 737.144531 284.160156 Z M 856.757812 324.097656 L 816.179688 347.507812 L 815.996094 347.621094 L 810.804688 350.613281 L 813.285156 356.085938 C 814.164062 358.027344 814.984375 359.992188 815.742188 361.984375 C 816.496094 363.976562 817.191406 365.988281 817.824219 368.023438 C 818.457031 370.058594 819.023438 372.109375 819.527344 374.179688 C 820.03125 376.25 820.46875 378.332031 820.84375 380.429688 C 821.214844 382.527344 821.523438 384.636719 821.765625 386.75 C 822.007812 388.867188 822.183594 390.988281 822.292969 393.117188 C 822.402344 395.246094 822.445312 397.375 822.421875 399.503906 C 822.398438 401.632812 822.308594 403.761719 822.152344 405.886719 C 821.996094 408.011719 821.777344 410.128906 821.488281 412.238281 C 821.199219 414.351562 820.847656 416.449219 820.425781 418.539062 C 820.007812 420.628906 819.523438 422.699219 818.976562 424.757812 C 818.425781 426.816406 817.816406 428.859375 817.140625 430.878906 C 816.464844 432.898438 815.726562 434.894531 814.925781 436.871094 C 814.125 438.84375 813.261719 440.792969 812.339844 442.714844 C 811.417969 444.632812 810.4375 446.523438 809.398438 448.382812 C 808.359375 450.242188 807.261719 452.070312 806.109375 453.859375 C 804.953125 455.652344 803.746094 457.40625 802.480469 459.121094 C 801.21875 460.835938 799.902344 462.511719 798.535156 464.144531 C 797.167969 465.78125 795.75 467.371094 794.285156 468.914062 C 792.816406 470.460938 791.304688 471.960938 789.742188 473.410156 C 788.183594 474.863281 786.578125 476.265625 784.929688 477.617188 C 783.28125 478.96875 781.59375 480.265625 779.863281 481.511719 C 778.136719 482.757812 776.371094 483.949219 774.566406 485.085938 C 772.761719 486.222656 770.925781 487.300781 769.054688 488.320312 C 767.183594 489.34375 765.285156 490.304688 763.351562 491.210938 C 761.421875 492.113281 759.464844 492.953125 757.484375 493.734375 C 755.5 494.515625 753.492188 495.234375 751.464844 495.890625 C 749.4375 496.550781 747.390625 497.140625 745.324219 497.671875 C 743.261719 498.199219 741.179688 498.664062 739.085938 499.0625 C 736.992188 499.460938 734.890625 499.796875 732.773438 500.0625 C 730.660156 500.332031 728.539062 500.53125 726.410156 500.667969 C 724.285156 500.804688 722.152344 500.875 720.023438 500.878906 C 715.960938 500.871094 711.914062 500.625 707.878906 500.136719 C 703.847656 499.652344 699.855469 498.929688 695.910156 497.972656 C 691.960938 497.011719 688.085938 495.824219 684.277344 494.40625 C 680.472656 492.988281 676.761719 491.351562 673.152344 489.492188 C 669.539062 487.636719 666.050781 485.570312 662.683594 483.300781 C 659.316406 481.027344 656.09375 478.566406 653.019531 475.914062 C 649.941406 473.261719 647.035156 470.4375 644.296875 467.441406 C 641.554688 464.445312 639 461.296875 636.636719 457.996094 L 633.144531 453.039062 L 587.191406 479.488281 L 591.179688 485.371094 C 593.488281 488.789062 595.929688 492.109375 598.507812 495.332031 C 601.082031 498.554688 603.78125 501.671875 606.601562 504.679688 C 609.425781 507.6875 612.363281 510.578125 615.417969 513.355469 C 618.472656 516.128906 621.632812 518.777344 624.894531 521.300781 C 628.160156 523.824219 631.519531 526.210938 634.976562 528.46875 C 638.429688 530.722656 641.96875 532.839844 645.59375 534.8125 C 649.214844 536.789062 652.914062 538.613281 656.683594 540.292969 C 660.449219 541.972656 664.28125 543.503906 668.171875 544.878906 C 672.0625 546.253906 676.003906 547.472656 679.988281 548.53125 C 683.976562 549.59375 688 550.496094 692.0625 551.238281 C 696.121094 551.980469 700.203125 552.558594 704.308594 552.976562 C 708.417969 553.390625 712.53125 553.644531 716.65625 553.734375 C 720.785156 553.824219 724.90625 553.75 729.027344 553.511719 C 733.148438 553.269531 737.25 552.871094 741.339844 552.304688 C 745.429688 551.738281 749.488281 551.011719 753.515625 550.125 C 757.546875 549.234375 761.535156 548.1875 765.484375 546.980469 C 769.429688 545.777344 773.320312 544.414062 777.160156 542.898438 C 781 541.382812 784.769531 539.71875 788.476562 537.902344 C 792.179688 536.085938 795.808594 534.128906 799.359375 532.023438 C 802.90625 529.917969 806.367188 527.675781 809.738281 525.296875 C 813.109375 522.917969 816.378906 520.40625 819.550781 517.769531 C 822.722656 515.128906 825.78125 512.367188 828.734375 509.484375 C 831.683594 506.601562 834.515625 503.605469 837.226562 500.496094 C 839.941406 497.386719 842.523438 494.175781 844.980469 490.859375 C 847.4375 487.546875 849.757812 484.140625 851.941406 480.640625 C 854.125 477.140625 856.167969 473.5625 858.066406 469.898438 C 859.96875 466.238281 861.71875 462.507812 863.320312 458.707031 C 864.921875 454.90625 866.371094 451.046875 867.664062 447.132812 C 868.960938 443.214844 870.097656 439.253906 871.078125 435.246094 C 872.054688 431.242188 872.875 427.203125 873.53125 423.128906 C 874.1875 419.058594 874.683594 414.96875 875.015625 410.855469 C 875.34375 406.746094 875.511719 402.628906 875.515625 398.503906 C 875.550781 386.71875 874.246094 375.082031 871.601562 363.59375 C 868.960938 352.105469 865.046875 341.070312 859.867188 330.480469 Z M 720.023438 540.667969 C 714.523438 540.667969 709.042969 540.351562 703.582031 539.714844 C 698.117188 539.082031 692.710938 538.132812 687.359375 536.871094 C 682.007812 535.609375 676.746094 534.042969 671.574219 532.171875 C 666.40625 530.300781 661.359375 528.140625 656.441406 525.683594 C 651.523438 523.226562 646.761719 520.496094 642.160156 517.488281 C 637.554688 514.484375 633.144531 511.21875 628.917969 507.703125 C 624.695312 504.183594 620.6875 500.433594 616.902344 496.449219 C 613.113281 492.464844 609.566406 488.277344 606.265625 483.882812 L 629.503906 470.496094 C 631.359375 472.824219 633.300781 475.074219 635.328125 477.253906 C 637.355469 479.433594 639.464844 481.527344 641.65625 483.542969 C 643.84375 485.558594 646.109375 487.488281 648.449219 489.328125 C 650.785156 491.171875 653.191406 492.917969 655.667969 494.574219 C 658.140625 496.230469 660.675781 497.785156 663.269531 499.246094 C 665.863281 500.707031 668.511719 502.0625 671.210938 503.320312 C 673.910156 504.574219 676.652344 505.722656 679.441406 506.769531 C 682.226562 507.8125 685.050781 508.746094 687.914062 509.570312 C 690.773438 510.398438 693.660156 511.113281 696.578125 511.714844 C 699.492188 512.320312 702.425781 512.808594 705.378906 513.183594 C 708.332031 513.5625 711.296875 513.824219 714.269531 513.972656 C 717.242188 514.121094 720.21875 514.152344 723.195312 514.070312 C 726.171875 513.988281 729.140625 513.792969 732.101562 513.484375 C 735.0625 513.171875 738.003906 512.75 740.933594 512.210938 C 743.863281 511.671875 746.765625 511.023438 749.644531 510.261719 C 752.519531 509.5 755.363281 508.628906 758.175781 507.644531 C 760.984375 506.664062 763.753906 505.578125 766.480469 504.382812 C 769.207031 503.1875 771.882812 501.886719 774.511719 500.488281 C 777.136719 499.085938 779.707031 497.585938 782.214844 495.984375 C 784.726562 494.386719 787.171875 492.691406 789.550781 490.902344 C 791.929688 489.117188 794.238281 487.238281 796.472656 485.273438 C 798.707031 483.304688 800.859375 481.257812 802.9375 479.125 C 805.011719 476.992188 807.003906 474.78125 808.910156 472.496094 C 810.8125 470.210938 812.628906 467.851562 814.351562 465.425781 C 816.074219 463 817.703125 460.511719 819.234375 457.960938 C 820.765625 455.410156 822.195312 452.800781 823.523438 450.140625 C 824.851562 447.476562 826.078125 444.769531 827.199219 442.011719 C 828.320312 439.253906 829.332031 436.460938 830.234375 433.625 C 831.140625 430.789062 831.933594 427.925781 832.617188 425.027344 C 833.296875 422.132812 833.867188 419.214844 834.324219 416.273438 C 834.785156 413.335938 835.125 410.382812 835.355469 407.414062 C 835.585938 404.449219 835.699219 401.480469 835.699219 398.503906 C 835.714844 391.253906 835.046875 384.0625 833.695312 376.941406 C 832.347656 369.816406 830.339844 362.878906 827.675781 356.136719 L 850.835938 342.730469 C 854.625 351.539062 857.480469 360.640625 859.410156 370.03125 C 861.335938 379.425781 862.296875 388.914062 862.28125 398.503906 C 862.277344 400.828125 862.21875 403.152344 862.101562 405.476562 C 861.984375 407.800781 861.8125 410.117188 861.582031 412.433594 C 861.351562 414.746094 861.0625 417.054688 860.71875 419.355469 C 860.378906 421.65625 859.976562 423.945312 859.519531 426.226562 C 859.066406 428.507812 858.554688 430.777344 857.984375 433.03125 C 857.417969 435.289062 856.796875 437.527344 856.121094 439.753906 C 855.441406 441.976562 854.710938 444.183594 853.925781 446.375 C 853.140625 448.5625 852.300781 450.734375 851.410156 452.882812 C 850.515625 455.03125 849.574219 457.15625 848.578125 459.257812 C 847.582031 461.359375 846.535156 463.433594 845.433594 465.484375 C 844.335938 467.535156 843.191406 469.558594 841.992188 471.554688 C 840.796875 473.546875 839.550781 475.511719 838.257812 477.445312 C 836.960938 479.378906 835.621094 481.28125 834.234375 483.148438 C 832.847656 485.015625 831.417969 486.847656 829.941406 488.648438 C 828.464844 490.445312 826.941406 492.203125 825.378906 493.929688 C 823.816406 495.652344 822.210938 497.335938 820.566406 498.980469 C 818.921875 500.625 817.234375 502.226562 815.511719 503.789062 C 813.785156 505.351562 812.023438 506.871094 810.226562 508.347656 C 808.425781 509.824219 806.59375 511.253906 804.722656 512.640625 C 802.855469 514.023438 800.953125 515.363281 799.019531 516.65625 C 797.082031 517.949219 795.117188 519.195312 793.121094 520.390625 C 791.125 521.585938 789.101562 522.734375 787.050781 523.832031 C 785 524.929688 782.921875 525.976562 780.816406 526.972656 C 778.714844 527.964844 776.585938 528.910156 774.4375 529.800781 C 772.289062 530.691406 770.117188 531.53125 767.925781 532.316406 C 765.734375 533.101562 763.527344 533.832031 761.300781 534.507812 C 759.074219 535.183594 756.832031 535.808594 754.574219 536.375 C 752.316406 536.941406 750.046875 537.453125 747.765625 537.90625 C 745.480469 538.363281 743.191406 538.761719 740.886719 539.105469 C 738.585938 539.449219 736.277344 539.738281 733.960938 539.96875 C 731.644531 540.199219 729.324219 540.371094 727 540.488281 C 724.675781 540.605469 722.351562 540.664062 720.023438 540.667969 Z M 626.757812 440.921875 C 625.921875 439.074219 625.140625 437.207031 624.414062 435.3125 C 623.683594 433.421875 623.015625 431.507812 622.402344 429.574219 C 621.789062 427.644531 621.234375 425.695312 620.734375 423.730469 C 620.238281 421.761719 619.796875 419.785156 619.417969 417.792969 C 619.039062 415.800781 618.71875 413.800781 618.457031 411.792969 C 618.195312 409.78125 617.992188 407.765625 617.851562 405.742188 C 617.710938 403.71875 617.628906 401.695312 617.605469 399.667969 C 617.585938 397.640625 617.625 395.613281 617.722656 393.589844 C 617.824219 391.566406 617.980469 389.546875 618.199219 387.53125 C 618.417969 385.515625 618.699219 383.507812 619.035156 381.507812 C 619.375 379.507812 619.769531 377.523438 620.226562 375.546875 C 620.683594 373.570312 621.195312 371.613281 621.769531 369.667969 C 622.34375 367.722656 622.972656 365.796875 623.660156 363.886719 C 624.34375 361.980469 625.089844 360.09375 625.886719 358.230469 C 626.6875 356.367188 627.539062 354.53125 628.445312 352.71875 C 629.355469 350.90625 630.316406 349.121094 631.328125 347.363281 C 632.34375 345.609375 633.410156 343.882812 634.523438 342.191406 C 635.640625 340.5 636.804688 338.839844 638.019531 337.214844 C 639.234375 335.59375 640.496094 334.007812 641.808594 332.457031 C 643.117188 330.910156 644.46875 329.402344 645.867188 327.933594 C 647.265625 326.464844 648.707031 325.039062 650.191406 323.65625 C 651.671875 322.273438 653.195312 320.933594 654.757812 319.640625 C 656.320312 318.347656 657.921875 317.101562 659.558594 315.90625 C 661.195312 314.707031 662.863281 313.558594 664.570312 312.460938 C 666.273438 311.359375 668.011719 310.3125 669.777344 309.316406 C 671.542969 308.320312 673.339844 307.378906 675.160156 306.488281 C 676.984375 305.601562 678.832031 304.765625 680.707031 303.984375 C 682.578125 303.207031 684.472656 302.480469 686.386719 301.8125 C 688.300781 301.148438 690.234375 300.535156 692.1875 299.984375 C 694.140625 299.429688 696.105469 298.9375 698.085938 298.5 C 700.066406 298.0625 702.058594 297.6875 704.0625 297.367188 C 706.066406 297.050781 708.078125 296.792969 710.097656 296.59375 L 716.085938 296.03125 L 716.085938 243 L 709.054688 243.496094 C 628.015625 249.148438 564.527344 317.238281 564.527344 398.503906 C 564.492188 410.292969 565.800781 421.929688 568.445312 433.417969 C 571.089844 444.902344 575.007812 455.941406 580.195312 466.527344 L 583.304688 472.90625 L 629.257812 446.457031 Z M 589.125 454.277344 C 585.351562 445.464844 582.507812 436.363281 580.59375 426.96875 C 578.679688 417.578125 577.738281 408.089844 577.761719 398.503906 C 577.769531 396.355469 577.820312 394.210938 577.925781 392.066406 C 578.027344 389.921875 578.175781 387.78125 578.375 385.644531 C 578.574219 383.507812 578.824219 381.375 579.117188 379.25 C 579.414062 377.125 579.757812 375.003906 580.148438 372.894531 C 580.539062 370.785156 580.976562 368.683594 581.464844 366.59375 C 581.949219 364.5 582.484375 362.421875 583.0625 360.355469 C 583.644531 358.289062 584.269531 356.238281 584.941406 354.199219 C 585.617188 352.160156 586.335938 350.136719 587.097656 348.132812 C 587.863281 346.125 588.671875 344.136719 589.527344 342.167969 C 590.378906 340.199219 591.277344 338.25 592.222656 336.320312 C 593.164062 334.390625 594.148438 332.484375 595.175781 330.597656 C 596.207031 328.714844 597.277344 326.855469 598.386719 325.019531 C 599.5 323.183594 600.652344 321.371094 601.847656 319.585938 C 603.042969 317.804688 604.277344 316.046875 605.550781 314.320312 C 606.824219 312.589844 608.136719 310.890625 609.488281 309.222656 C 610.835938 307.554688 612.222656 305.914062 613.648438 304.308594 C 615.074219 302.703125 616.535156 301.128906 618.027344 299.585938 C 619.523438 298.046875 621.054688 296.539062 622.617188 295.070312 C 624.183594 293.597656 625.777344 292.160156 627.40625 290.761719 C 629.035156 289.363281 630.695312 288 632.386719 286.675781 C 634.074219 285.351562 635.792969 284.0625 637.542969 282.816406 C 639.289062 281.570312 641.066406 280.363281 642.871094 279.195312 C 644.671875 278.027344 646.5 276.902344 648.355469 275.820312 C 650.207031 274.734375 652.085938 273.691406 653.984375 272.691406 C 655.886719 271.691406 657.808594 270.734375 659.753906 269.824219 C 661.695312 268.910156 663.660156 268.042969 665.644531 267.21875 C 667.628906 266.394531 669.628906 265.613281 671.648438 264.878906 C 673.664062 264.144531 675.699219 263.457031 677.75 262.816406 C 679.796875 262.171875 681.863281 261.578125 683.9375 261.027344 C 686.015625 260.480469 688.101562 259.976562 690.203125 259.523438 C 692.300781 259.066406 694.410156 258.660156 696.527344 258.300781 C 698.644531 257.941406 700.769531 257.628906 702.902344 257.363281 L 702.902344 284.160156 C 700.757812 284.484375 698.628906 284.867188 696.507812 285.308594 C 694.386719 285.75 692.28125 286.25 690.1875 286.8125 C 688.097656 287.371094 686.019531 287.988281 683.964844 288.667969 C 681.90625 289.34375 679.871094 290.078125 677.851562 290.867188 C 675.835938 291.65625 673.84375 292.503906 671.875 293.40625 C 669.90625 294.308594 667.964844 295.265625 666.050781 296.277344 C 664.132812 297.289062 662.25 298.351562 660.394531 299.46875 C 658.539062 300.585938 656.714844 301.753906 654.925781 302.976562 C 653.136719 304.195312 651.382812 305.464844 649.664062 306.78125 C 647.945312 308.097656 646.265625 309.464844 644.621094 310.875 C 642.980469 312.289062 641.378906 313.742188 639.820312 315.246094 C 638.257812 316.746094 636.742188 318.292969 635.269531 319.878906 C 633.796875 321.464844 632.367188 323.09375 630.988281 324.757812 C 629.605469 326.425781 628.269531 328.128906 626.984375 329.871094 C 625.699219 331.613281 624.460938 333.390625 623.273438 335.199219 C 622.089844 337.011719 620.953125 338.855469 619.871094 340.730469 C 618.789062 342.605469 617.757812 344.507812 616.78125 346.441406 C 615.804688 348.371094 614.886719 350.332031 614.019531 352.316406 C 613.152344 354.296875 612.34375 356.304688 611.589844 358.335938 C 610.835938 360.363281 610.140625 362.414062 609.5 364.480469 C 608.863281 366.550781 608.285156 368.636719 607.761719 370.734375 C 607.242188 372.835938 606.777344 374.949219 606.375 377.078125 C 605.972656 379.203125 605.632812 381.339844 605.347656 383.488281 C 605.066406 385.632812 604.84375 387.785156 604.683594 389.945312 C 604.519531 392.101562 604.417969 394.265625 604.378906 396.429688 C 604.339844 398.59375 604.359375 400.757812 604.441406 402.921875 C 604.523438 405.082031 604.664062 407.242188 604.867188 409.398438 C 605.066406 411.550781 605.332031 413.699219 605.652344 415.839844 C 605.976562 417.980469 606.359375 420.109375 606.800781 422.230469 C 607.246094 424.347656 607.746094 426.453125 608.308594 428.542969 C 608.867188 430.636719 609.488281 432.707031 610.164062 434.765625 C 610.84375 436.820312 611.578125 438.855469 612.367188 440.871094 Z M 641.664062 398.503906 C 641.664062 399.785156 641.695312 401.066406 641.757812 402.347656 C 641.820312 403.625 641.914062 404.902344 642.039062 406.179688 C 642.167969 407.453125 642.324219 408.726562 642.511719 409.992188 C 642.699219 411.261719 642.917969 412.523438 643.167969 413.78125 C 643.417969 415.035156 643.699219 416.285156 644.011719 417.53125 C 644.324219 418.773438 644.664062 420.007812 645.039062 421.234375 C 645.410156 422.460938 645.8125 423.675781 646.246094 424.882812 C 646.675781 426.089844 647.136719 427.285156 647.628906 428.46875 C 648.117188 429.652344 648.636719 430.824219 649.1875 431.984375 C 649.734375 433.140625 650.3125 434.285156 650.917969 435.417969 C 651.519531 436.546875 652.152344 437.660156 652.8125 438.761719 C 653.472656 439.859375 654.15625 440.941406 654.871094 442.007812 C 655.582031 443.074219 656.320312 444.121094 657.085938 445.148438 C 657.847656 446.179688 658.636719 447.1875 659.449219 448.179688 C 660.265625 449.171875 661.101562 450.140625 661.960938 451.089844 C 662.824219 452.039062 663.707031 452.96875 664.613281 453.875 C 665.519531 454.78125 666.449219 455.664062 667.398438 456.523438 C 668.351562 457.382812 669.320312 458.222656 670.3125 459.035156 C 671.304688 459.847656 672.3125 460.636719 673.34375 461.398438 C 674.375 462.164062 675.421875 462.898438 676.488281 463.613281 C 677.554688 464.324219 678.636719 465.007812 679.738281 465.667969 C 680.835938 466.328125 681.953125 466.957031 683.085938 467.5625 C 684.214844 468.167969 685.359375 468.742188 686.519531 469.289062 C 687.679688 469.839844 688.851562 470.359375 690.035156 470.847656 C 691.21875 471.339844 692.417969 471.800781 693.625 472.230469 C 694.832031 472.664062 696.046875 473.066406 697.277344 473.4375 C 698.503906 473.808594 699.738281 474.152344 700.984375 474.460938 C 702.226562 474.773438 703.476562 475.054688 704.734375 475.304688 C 705.992188 475.554688 707.257812 475.773438 708.523438 475.960938 C 709.792969 476.148438 711.066406 476.304688 712.339844 476.433594 C 713.617188 476.558594 714.898438 476.652344 716.175781 476.714844 C 717.457031 476.777344 718.738281 476.808594 720.023438 476.808594 C 721.304688 476.808594 722.585938 476.777344 723.867188 476.714844 C 725.148438 476.652344 726.425781 476.558594 727.703125 476.433594 C 728.980469 476.304688 730.25 476.148438 731.519531 475.960938 C 732.789062 475.773438 734.050781 475.554688 735.308594 475.304688 C 736.566406 475.054688 737.816406 474.773438 739.0625 474.460938 C 740.304688 474.152344 741.542969 473.808594 742.769531 473.4375 C 743.996094 473.066406 745.214844 472.664062 746.421875 472.230469 C 747.628906 471.800781 748.824219 471.339844 750.007812 470.847656 C 751.195312 470.359375 752.367188 469.839844 753.523438 469.289062 C 754.683594 468.742188 755.828125 468.167969 756.960938 467.5625 C 758.089844 466.957031 759.207031 466.328125 760.304688 465.667969 C 761.40625 465.007812 762.488281 464.324219 763.554688 463.613281 C 764.621094 462.898438 765.671875 462.164062 766.699219 461.398438 C 767.730469 460.636719 768.742188 459.847656 769.734375 459.035156 C 770.722656 458.222656 771.695312 457.382812 772.644531 456.523438 C 773.59375 455.664062 774.523438 454.78125 775.429688 453.875 C 776.335938 452.96875 777.222656 452.039062 778.082031 451.089844 C 778.945312 450.140625 779.78125 449.171875 780.59375 448.179688 C 781.40625 447.1875 782.195312 446.179688 782.960938 445.148438 C 783.722656 444.121094 784.460938 443.074219 785.175781 442.007812 C 785.886719 440.941406 786.574219 439.859375 787.234375 438.761719 C 787.890625 437.660156 788.523438 436.546875 789.128906 435.417969 C 789.734375 434.285156 790.308594 433.140625 790.859375 431.984375 C 791.40625 430.824219 791.925781 429.652344 792.417969 428.46875 C 792.90625 427.285156 793.367188 426.089844 793.800781 424.882812 C 794.230469 423.675781 794.632812 422.460938 795.007812 421.234375 C 795.378906 420.007812 795.722656 418.773438 796.03125 417.53125 C 796.34375 416.285156 796.625 415.035156 796.875 413.78125 C 797.125 412.523438 797.34375 411.261719 797.53125 409.992188 C 797.722656 408.726562 797.878906 407.453125 798.003906 406.179688 C 798.128906 404.902344 798.222656 403.625 798.285156 402.347656 C 798.347656 401.066406 798.382812 399.785156 798.382812 398.503906 C 798.382812 397.222656 798.347656 395.941406 798.285156 394.660156 C 798.222656 393.382812 798.128906 392.105469 798.003906 390.828125 C 797.878906 389.554688 797.722656 388.28125 797.53125 387.011719 C 797.34375 385.746094 797.125 384.484375 796.875 383.226562 C 796.625 381.96875 796.34375 380.71875 796.03125 379.476562 C 795.722656 378.234375 795.378906 377 795.007812 375.773438 C 794.632812 374.546875 794.230469 373.328125 793.800781 372.125 C 793.367188 370.917969 792.90625 369.722656 792.417969 368.539062 C 791.925781 367.351562 791.40625 366.183594 790.859375 365.023438 C 790.308594 363.863281 789.734375 362.722656 789.128906 361.589844 C 788.523438 360.460938 787.890625 359.34375 787.234375 358.246094 C 786.574219 357.148438 785.886719 356.066406 785.175781 355 C 784.460938 353.933594 783.722656 352.886719 782.960938 351.855469 C 782.195312 350.828125 781.40625 349.816406 780.59375 348.828125 C 779.78125 347.835938 778.945312 346.867188 778.082031 345.917969 C 777.222656 344.96875 776.335938 344.039062 775.429688 343.132812 C 774.523438 342.226562 773.59375 341.34375 772.644531 340.484375 C 771.695312 339.621094 770.722656 338.785156 769.734375 337.972656 C 768.742188 337.160156 767.730469 336.371094 766.699219 335.609375 C 765.671875 334.84375 764.621094 334.105469 763.554688 333.394531 C 762.488281 332.683594 761.40625 331.996094 760.304688 331.339844 C 759.207031 330.679688 758.089844 330.046875 756.960938 329.445312 C 755.828125 328.839844 754.683594 328.265625 753.523438 327.714844 C 752.367188 327.167969 751.195312 326.648438 750.007812 326.160156 C 748.824219 325.667969 747.628906 325.207031 746.421875 324.773438 C 745.214844 324.34375 743.996094 323.941406 742.769531 323.570312 C 741.542969 323.199219 740.304688 322.855469 739.0625 322.542969 C 737.816406 322.234375 736.566406 321.953125 735.308594 321.703125 C 734.050781 321.453125 732.789062 321.234375 731.519531 321.046875 C 730.25 320.859375 728.980469 320.699219 727.703125 320.574219 C 726.425781 320.449219 725.148438 320.355469 723.867188 320.292969 C 722.585938 320.230469 721.304688 320.199219 720.023438 320.199219 C 718.742188 320.199219 717.460938 320.230469 716.179688 320.296875 C 714.898438 320.359375 713.621094 320.457031 712.34375 320.582031 C 711.070312 320.710938 709.796875 320.867188 708.527344 321.054688 C 707.261719 321.246094 706 321.464844 704.742188 321.714844 C 703.484375 321.96875 702.234375 322.25 700.988281 322.5625 C 699.746094 322.875 698.511719 323.214844 697.285156 323.589844 C 696.058594 323.960938 694.84375 324.363281 693.636719 324.796875 C 692.429688 325.226562 691.234375 325.691406 690.046875 326.179688 C 688.863281 326.671875 687.691406 327.191406 686.535156 327.738281 C 685.375 328.289062 684.230469 328.863281 683.101562 329.46875 C 681.96875 330.074219 680.855469 330.703125 679.757812 331.363281 C 678.65625 332.023438 677.574219 332.707031 676.507812 333.421875 C 675.441406 334.132812 674.394531 334.871094 673.363281 335.632812 C 672.335938 336.398438 671.324219 337.183594 670.335938 337.996094 C 669.34375 338.8125 668.371094 339.648438 667.421875 340.507812 C 666.472656 341.367188 665.546875 342.25 664.636719 343.15625 C 663.730469 344.0625 662.847656 344.992188 661.988281 345.941406 C 661.125 346.890625 660.289062 347.859375 659.476562 348.847656 C 658.660156 349.839844 657.875 350.847656 657.109375 351.878906 C 656.34375 352.90625 655.605469 353.953125 654.894531 355.019531 C 654.183594 356.082031 653.496094 357.164062 652.835938 358.265625 C 652.175781 359.363281 651.546875 360.476562 650.941406 361.605469 C 650.335938 362.738281 649.757812 363.878906 649.210938 365.039062 C 648.660156 366.195312 648.140625 367.367188 647.652344 368.550781 C 647.160156 369.734375 646.695312 370.929688 646.265625 372.132812 C 645.832031 373.339844 645.429688 374.554688 645.054688 375.78125 C 644.683594 377.007812 644.339844 378.242188 644.027344 379.484375 C 643.714844 380.726562 643.433594 381.976562 643.183594 383.234375 C 642.933594 384.488281 642.710938 385.75 642.523438 387.019531 C 642.332031 388.285156 642.175781 389.554688 642.046875 390.832031 C 641.921875 392.105469 641.824219 393.382812 641.761719 394.664062 C 641.699219 395.941406 641.664062 397.222656 641.664062 398.503906 Z M 785.148438 398.503906 C 785.148438 399.570312 785.121094 400.632812 785.070312 401.695312 C 785.015625 402.761719 784.9375 403.824219 784.832031 404.882812 C 784.730469 405.941406 784.597656 407 784.441406 408.054688 C 784.285156 409.105469 784.105469 410.15625 783.894531 411.199219 C 783.6875 412.246094 783.453125 413.285156 783.195312 414.316406 C 782.9375 415.351562 782.652344 416.375 782.34375 417.394531 C 782.035156 418.414062 781.699219 419.425781 781.339844 420.429688 C 780.980469 421.429688 780.597656 422.425781 780.191406 423.410156 C 779.78125 424.394531 779.351562 425.367188 778.894531 426.328125 C 778.4375 427.292969 777.960938 428.242188 777.457031 429.183594 C 776.953125 430.121094 776.429688 431.046875 775.882812 431.960938 C 775.335938 432.875 774.765625 433.773438 774.171875 434.660156 C 773.578125 435.546875 772.964844 436.417969 772.332031 437.273438 C 771.695312 438.128906 771.039062 438.96875 770.363281 439.789062 C 769.6875 440.613281 768.992188 441.421875 768.277344 442.210938 C 767.5625 443 766.828125 443.769531 766.074219 444.523438 C 765.320312 445.277344 764.546875 446.011719 763.757812 446.726562 C 762.96875 447.441406 762.160156 448.136719 761.335938 448.8125 C 760.511719 449.488281 759.671875 450.140625 758.816406 450.777344 C 757.960938 451.410156 757.089844 452.023438 756.203125 452.617188 C 755.316406 453.207031 754.417969 453.777344 753.503906 454.324219 C 752.589844 454.871094 751.660156 455.398438 750.722656 455.898438 C 749.78125 456.402344 748.832031 456.878906 747.867188 457.335938 C 746.902344 457.792969 745.929688 458.222656 744.945312 458.628906 C 743.960938 459.039062 742.964844 459.421875 741.960938 459.78125 C 740.957031 460.140625 739.945312 460.472656 738.925781 460.78125 C 737.90625 461.089844 736.878906 461.375 735.847656 461.632812 C 734.8125 461.894531 733.773438 462.125 732.726562 462.332031 C 731.683594 462.542969 730.632812 462.722656 729.578125 462.878906 C 728.523438 463.035156 727.464844 463.167969 726.40625 463.269531 C 725.34375 463.375 724.28125 463.453125 723.21875 463.507812 C 722.152344 463.558594 721.089844 463.585938 720.023438 463.585938 C 718.957031 463.585938 717.890625 463.558594 716.828125 463.507812 C 715.761719 463.453125 714.699219 463.375 713.640625 463.269531 C 712.578125 463.167969 711.519531 463.035156 710.464844 462.878906 C 709.410156 462.722656 708.363281 462.542969 707.316406 462.332031 C 706.273438 462.125 705.230469 461.894531 704.199219 461.632812 C 703.164062 461.375 702.136719 461.089844 701.117188 460.78125 C 700.097656 460.472656 699.085938 460.140625 698.082031 459.78125 C 697.078125 459.421875 696.085938 459.039062 695.101562 458.628906 C 694.117188 458.222656 693.140625 457.792969 692.175781 457.335938 C 691.214844 456.878906 690.261719 456.402344 689.324219 455.898438 C 688.382812 455.398438 687.457031 454.871094 686.542969 454.324219 C 685.628906 453.777344 684.726562 453.207031 683.839844 452.617188 C 682.953125 452.023438 682.082031 451.410156 681.226562 450.777344 C 680.371094 450.140625 679.53125 449.488281 678.707031 448.8125 C 677.882812 448.136719 677.078125 447.441406 676.285156 446.726562 C 675.496094 446.011719 674.726562 445.277344 673.972656 444.523438 C 673.21875 443.769531 672.484375 443 671.769531 442.210938 C 671.050781 441.421875 670.355469 440.613281 669.679688 439.789062 C 669.003906 438.96875 668.347656 438.128906 667.714844 437.273438 C 667.078125 436.417969 666.464844 435.546875 665.871094 434.660156 C 665.28125 433.773438 664.710938 432.875 664.164062 431.960938 C 663.613281 431.046875 663.089844 430.121094 662.585938 429.183594 C 662.085938 428.242188 661.605469 427.292969 661.148438 426.328125 C 660.695312 425.367188 660.261719 424.394531 659.855469 423.410156 C 659.445312 422.425781 659.0625 421.429688 658.703125 420.429688 C 658.34375 419.425781 658.011719 418.414062 657.703125 417.394531 C 657.390625 416.375 657.109375 415.351562 656.847656 414.316406 C 656.589844 413.285156 656.355469 412.246094 656.148438 411.199219 C 655.941406 410.15625 655.757812 409.105469 655.601562 408.054688 C 655.445312 407 655.316406 405.941406 655.210938 404.882812 C 655.105469 403.824219 655.027344 402.761719 654.976562 401.695312 C 654.921875 400.632812 654.898438 399.570312 654.898438 398.503906 C 654.898438 397.4375 654.921875 396.375 654.976562 395.308594 C 655.027344 394.246094 655.105469 393.183594 655.210938 392.125 C 655.316406 391.0625 655.445312 390.007812 655.601562 388.953125 C 655.757812 387.902344 655.941406 386.851562 656.148438 385.808594 C 656.355469 384.761719 656.589844 383.722656 656.847656 382.691406 C 657.109375 381.65625 657.390625 380.628906 657.703125 379.613281 C 658.011719 378.59375 658.34375 377.582031 658.703125 376.578125 C 659.0625 375.574219 659.445312 374.582031 659.855469 373.597656 C 660.261719 372.613281 660.695312 371.640625 661.148438 370.679688 C 661.605469 369.714844 662.085938 368.765625 662.585938 367.824219 C 663.089844 366.886719 663.613281 365.957031 664.164062 365.046875 C 664.710938 364.132812 665.28125 363.230469 665.871094 362.347656 C 666.464844 361.460938 667.078125 360.589844 667.714844 359.734375 C 668.347656 358.878906 669.003906 358.039062 669.679688 357.214844 C 670.355469 356.394531 671.050781 355.585938 671.769531 354.796875 C 672.484375 354.007812 673.21875 353.238281 673.972656 352.484375 C 674.726562 351.730469 675.496094 350.996094 676.285156 350.28125 C 677.078125 349.566406 677.882812 348.871094 678.707031 348.195312 C 679.53125 347.519531 680.371094 346.863281 681.226562 346.230469 C 682.082031 345.59375 682.953125 344.980469 683.839844 344.390625 C 684.726562 343.800781 685.628906 343.230469 686.542969 342.679688 C 687.457031 342.132812 688.382812 341.609375 689.324219 341.105469 C 690.261719 340.605469 691.214844 340.125 692.175781 339.671875 C 693.140625 339.214844 694.117188 338.785156 695.101562 338.375 C 696.085938 337.96875 697.078125 337.585938 698.082031 337.226562 C 699.085938 336.867188 700.097656 336.535156 701.117188 336.226562 C 702.136719 335.914062 703.164062 335.632812 704.199219 335.371094 C 705.230469 335.113281 706.273438 334.878906 707.316406 334.671875 C 708.363281 334.464844 709.414062 334.28125 710.464844 334.125 C 711.519531 333.96875 712.578125 333.839844 713.640625 333.734375 C 714.699219 333.632812 715.761719 333.554688 716.828125 333.5 C 717.890625 333.449219 718.957031 333.421875 720.023438 333.421875 C 721.085938 333.421875 722.152344 333.449219 723.21875 333.503906 C 724.28125 333.558594 725.34375 333.636719 726.402344 333.742188 C 727.464844 333.847656 728.519531 333.976562 729.574219 334.136719 C 730.628906 334.292969 731.679688 334.476562 732.722656 334.683594 C 733.769531 334.890625 734.808594 335.125 735.839844 335.386719 C 736.875 335.644531 737.898438 335.929688 738.917969 336.238281 C 739.9375 336.550781 740.949219 336.882812 741.953125 337.242188 C 742.957031 337.601562 743.949219 337.984375 744.933594 338.394531 C 745.917969 338.800781 746.890625 339.234375 747.855469 339.691406 C 748.816406 340.144531 749.769531 340.625 750.710938 341.125 C 751.648438 341.628906 752.574219 342.152344 753.488281 342.703125 C 754.402344 343.25 755.300781 343.820312 756.1875 344.410156 C 757.074219 345.003906 757.945312 345.617188 758.800781 346.25 C 759.65625 346.882812 760.496094 347.539062 761.320312 348.214844 C 762.144531 348.890625 762.949219 349.585938 763.738281 350.300781 C 764.527344 351.015625 765.300781 351.75 766.054688 352.503906 C 766.808594 353.257812 767.542969 354.027344 768.257812 354.816406 C 768.972656 355.605469 769.667969 356.410156 770.34375 357.234375 C 771.019531 358.058594 771.675781 358.894531 772.3125 359.75 C 772.945312 360.605469 773.558594 361.476562 774.152344 362.363281 C 774.742188 363.246094 775.3125 364.144531 775.863281 365.058594 C 776.410156 365.972656 776.933594 366.898438 777.4375 367.835938 C 777.941406 368.777344 778.421875 369.726562 778.875 370.6875 C 779.332031 371.652344 779.765625 372.625 780.171875 373.609375 C 780.582031 374.59375 780.964844 375.585938 781.324219 376.585938 C 781.683594 377.589844 782.019531 378.601562 782.328125 379.617188 C 782.636719 380.636719 782.921875 381.664062 783.183594 382.695312 C 783.441406 383.730469 783.675781 384.765625 783.886719 385.8125 C 784.09375 386.855469 784.277344 387.902344 784.433594 388.957031 C 784.589844 390.011719 784.722656 391.066406 784.828125 392.125 C 784.933594 393.1875 785.011719 394.246094 785.066406 395.3125 C 785.117188 396.375 785.144531 397.4375 785.148438 398.503906 Z M 674.316406 398.503906 C 674.316406 400 674.390625 401.492188 674.539062 402.980469 C 674.683594 404.472656 674.902344 405.949219 675.195312 407.417969 C 675.488281 408.886719 675.851562 410.335938 676.285156 411.769531 C 676.722656 413.199219 677.226562 414.605469 677.796875 415.988281 C 678.371094 417.371094 679.011719 418.722656 679.714844 420.042969 C 680.421875 421.363281 681.191406 422.644531 682.023438 423.890625 C 682.855469 425.132812 683.746094 426.335938 684.695312 427.492188 C 685.648438 428.648438 686.652344 429.753906 687.710938 430.8125 C 688.769531 431.871094 689.878906 432.875 691.035156 433.824219 C 692.195312 434.773438 693.394531 435.664062 694.640625 436.496094 C 695.886719 437.328125 697.167969 438.09375 698.488281 438.800781 C 699.808594 439.507812 701.160156 440.144531 702.546875 440.71875 C 703.929688 441.289062 705.335938 441.792969 706.769531 442.226562 C 708.203125 442.664062 709.65625 443.023438 711.125 443.316406 C 712.59375 443.609375 714.070312 443.828125 715.5625 443.972656 C 717.054688 444.121094 718.546875 444.195312 720.042969 444.195312 C 721.542969 444.195312 723.035156 444.121094 724.527344 443.972656 C 726.015625 443.828125 727.496094 443.605469 728.964844 443.316406 C 730.433594 443.023438 731.882812 442.660156 733.316406 442.226562 C 734.75 441.789062 736.160156 441.285156 737.542969 440.714844 C 738.925781 440.140625 740.277344 439.5 741.597656 438.796875 C 742.917969 438.089844 744.203125 437.320312 745.445312 436.488281 C 746.691406 435.65625 747.894531 434.765625 749.050781 433.816406 C 750.207031 432.867188 751.316406 431.863281 752.375 430.804688 C 753.433594 429.746094 754.4375 428.640625 755.386719 427.484375 C 756.335938 426.324219 757.226562 425.125 758.058594 423.878906 C 758.890625 422.636719 759.660156 421.355469 760.367188 420.035156 C 761.070312 418.714844 761.710938 417.363281 762.285156 415.980469 C 762.855469 414.597656 763.359375 413.1875 763.792969 411.757812 C 764.230469 410.324219 764.59375 408.875 764.882812 407.40625 C 765.175781 405.9375 765.394531 404.460938 765.542969 402.972656 C 765.6875 401.480469 765.761719 399.988281 765.761719 398.492188 C 765.761719 396.996094 765.6875 395.503906 765.539062 394.015625 C 765.390625 392.523438 765.171875 391.046875 764.878906 389.578125 C 764.585938 388.109375 764.222656 386.660156 763.789062 385.230469 C 763.351562 383.796875 762.847656 382.390625 762.273438 381.007812 C 761.703125 379.625 761.0625 378.273438 760.355469 376.953125 C 759.648438 375.632812 758.878906 374.351562 758.046875 373.109375 C 757.214844 371.863281 756.324219 370.664062 755.375 369.507812 C 754.421875 368.351562 753.417969 367.242188 752.359375 366.1875 C 751.300781 365.128906 750.191406 364.125 749.035156 363.175781 C 747.875 362.226562 746.671875 361.335938 745.429688 360.503906 C 744.183594 359.675781 742.898438 358.90625 741.578125 358.199219 C 740.257812 357.496094 738.90625 356.855469 737.523438 356.285156 C 736.136719 355.710938 734.730469 355.210938 733.296875 354.777344 C 731.863281 354.34375 730.410156 353.980469 728.941406 353.6875 C 727.472656 353.394531 725.996094 353.175781 724.503906 353.03125 C 723.015625 352.886719 721.519531 352.8125 720.023438 352.8125 C 718.523438 352.816406 717.03125 352.890625 715.542969 353.039062 C 714.050781 353.183594 712.574219 353.40625 711.105469 353.699219 C 709.636719 353.992188 708.1875 354.355469 706.753906 354.792969 C 705.324219 355.226562 703.914062 355.730469 702.53125 356.304688 C 701.148438 356.878906 699.800781 357.515625 698.480469 358.222656 C 697.160156 358.929688 695.875 359.695312 694.632812 360.527344 C 693.386719 361.359375 692.1875 362.25 691.03125 363.199219 C 689.875 364.148438 688.765625 365.152344 687.707031 366.210938 C 686.648438 367.269531 685.644531 368.375 684.695312 369.53125 C 683.746094 370.6875 682.851562 371.886719 682.019531 373.128906 C 681.1875 374.375 680.421875 375.65625 679.714844 376.976562 C 679.007812 378.292969 678.367188 379.644531 677.792969 381.027344 C 677.21875 382.40625 676.714844 383.8125 676.28125 385.246094 C 675.84375 386.675781 675.480469 388.125 675.1875 389.59375 C 674.894531 391.058594 674.671875 392.539062 674.523438 394.027344 C 674.378906 395.515625 674.300781 397.007812 674.300781 398.503906 Z M 752.527344 398.503906 C 752.527344 399.566406 752.476562 400.628906 752.371094 401.683594 C 752.265625 402.742188 752.109375 403.792969 751.902344 404.835938 C 751.695312 405.878906 751.4375 406.910156 751.128906 407.925781 C 750.820312 408.945312 750.460938 409.945312 750.054688 410.925781 C 749.648438 411.910156 749.191406 412.867188 748.691406 413.804688 C 748.191406 414.742188 747.644531 415.65625 747.054688 416.539062 C 746.460938 417.421875 745.828125 418.277344 745.152344 419.097656 C 744.480469 419.917969 743.765625 420.707031 743.011719 421.457031 C 742.261719 422.210938 741.472656 422.921875 740.652344 423.597656 C 739.828125 424.273438 738.976562 424.90625 738.089844 425.496094 C 737.207031 426.085938 736.296875 426.632812 735.355469 427.132812 C 734.417969 427.636719 733.457031 428.089844 732.476562 428.496094 C 731.492188 428.902344 730.492188 429.261719 729.472656 429.570312 C 728.457031 429.878906 727.425781 430.136719 726.382812 430.34375 C 725.339844 430.550781 724.285156 430.707031 723.226562 430.8125 C 722.167969 430.917969 721.109375 430.96875 720.042969 430.96875 C 718.980469 430.96875 717.917969 430.917969 716.859375 430.8125 C 715.800781 430.710938 714.75 430.554688 713.707031 430.347656 C 712.664062 430.140625 711.632812 429.882812 710.613281 429.574219 C 709.597656 429.265625 708.59375 428.90625 707.613281 428.5 C 706.628906 428.09375 705.667969 427.640625 704.730469 427.140625 C 703.792969 426.636719 702.878906 426.09375 701.996094 425.503906 C 701.109375 424.910156 700.257812 424.28125 699.433594 423.605469 C 698.613281 422.929688 697.824219 422.21875 697.070312 421.464844 C 696.320312 420.714844 695.605469 419.929688 694.929688 419.105469 C 694.253906 418.285156 693.621094 417.433594 693.03125 416.546875 C 692.441406 415.664062 691.894531 414.753906 691.390625 413.816406 C 690.890625 412.878906 690.433594 411.917969 690.027344 410.9375 C 689.621094 409.953125 689.261719 408.953125 688.953125 407.9375 C 688.644531 406.921875 688.386719 405.890625 688.175781 404.847656 C 687.96875 403.804688 687.8125 402.753906 687.707031 401.695312 C 687.605469 400.636719 687.550781 399.578125 687.550781 398.515625 C 687.550781 397.453125 687.601562 396.390625 687.707031 395.332031 C 687.808594 394.273438 687.964844 393.222656 688.171875 392.179688 C 688.378906 391.136719 688.636719 390.109375 688.945312 389.089844 C 689.253906 388.074219 689.613281 387.074219 690.019531 386.089844 C 690.425781 385.109375 690.878906 384.148438 691.378906 383.210938 C 691.882812 382.273438 692.429688 381.363281 693.019531 380.476562 C 693.609375 379.59375 694.242188 378.738281 694.917969 377.917969 C 695.589844 377.09375 696.304688 376.308594 697.054688 375.554688 C 697.808594 374.804688 698.59375 374.089844 699.417969 373.414062 C 700.238281 372.742188 701.09375 372.109375 701.976562 371.515625 C 702.863281 370.925781 703.773438 370.378906 704.710938 369.878906 C 705.648438 369.375 706.609375 368.921875 707.59375 368.515625 C 708.574219 368.105469 709.574219 367.75 710.59375 367.441406 C 711.609375 367.128906 712.640625 366.871094 713.683594 366.664062 C 714.726562 366.457031 715.78125 366.300781 716.839844 366.195312 C 717.898438 366.089844 718.957031 366.039062 720.023438 366.039062 C 721.085938 366.039062 722.148438 366.089844 723.207031 366.195312 C 724.265625 366.300781 725.316406 366.457031 726.359375 366.667969 C 727.402344 366.875 728.433594 367.132812 729.449219 367.441406 C 730.46875 367.753906 731.46875 368.109375 732.449219 368.515625 C 733.433594 368.925781 734.394531 369.378906 735.332031 369.878906 C 736.269531 370.382812 737.179688 370.929688 738.0625 371.519531 C 738.949219 372.109375 739.800781 372.742188 740.625 373.417969 C 741.445312 374.089844 742.234375 374.804688 742.984375 375.554688 C 743.738281 376.308594 744.449219 377.09375 745.125 377.917969 C 745.800781 378.738281 746.433594 379.589844 747.023438 380.472656 C 747.617188 381.359375 748.164062 382.269531 748.664062 383.207031 C 749.167969 384.144531 749.621094 385.101562 750.027344 386.085938 C 750.4375 387.066406 750.792969 388.066406 751.105469 389.082031 C 751.414062 390.101562 751.671875 391.128906 751.878906 392.171875 C 752.089844 393.214844 752.246094 394.265625 752.351562 395.324219 C 752.457031 396.378906 752.507812 397.441406 752.511719 398.503906 Z M 752.527344 398.503906 " clip-rule="nonzero"/></clipPath><linearGradient x1="-0.0212126" gradientTransform="matrix(1.654182, 0, 0, 1.653061, 564.529171, 243.000018)" y1="94.029999" x2="188.020573" gradientUnits="userSpaceOnUse" y2="94.029999" id="395f696f2d"><stop stop-opacity="1" stop-color="rgb(61.199951%, 19.198608%, 100%)" offset="0"/><stop stop-opacity="1" stop-color="rgb(60.986328%, 19.38324%, 99.934387%)" offset="0.00390625"/><stop stop-opacity="1" stop-color="rgb(60.772705%, 19.567871%, 99.8703%)" offset="0.0078125"/><stop stop-opacity="1" stop-color="rgb(60.55603%, 19.755554%, 99.804688%)" offset="0.0117188"/><stop stop-opacity="1" stop-color="rgb(60.340881%, 19.943237%, 99.739075%)" offset="0.015625"/><stop stop-opacity="1" stop-color="rgb(60.124207%, 20.13092%, 99.673462%)" offset="0.0195312"/><stop stop-opacity="1" stop-color="rgb(59.909058%, 20.318604%, 99.609375%)" offset="0.0234375"/><stop stop-opacity="1" stop-color="rgb(59.692383%, 20.504761%, 99.543762%)" offset="0.0273438"/><stop stop-opacity="1" stop-color="rgb(59.477234%, 20.692444%, 99.478149%)" offset="0.03125"/><stop stop-opacity="1" stop-color="rgb(59.260559%, 20.880127%, 99.412537%)" offset="0.0351562"/><stop stop-opacity="1" stop-color="rgb(59.043884%, 21.06781%, 99.346924%)" offset="0.0390625"/><stop stop-opacity="1" stop-color="rgb(58.827209%, 21.253967%, 99.281311%)" offset="0.0429688"/><stop stop-opacity="1" stop-color="rgb(58.612061%, 21.44165%, 99.217224%)" offset="0.046875"/><stop stop-opacity="1" stop-color="rgb(58.395386%, 21.629333%, 99.151611%)" offset="0.0507812"/><stop stop-opacity="1" stop-color="rgb(58.180237%, 21.817017%, 99.085999%)" offset="0.0546875"/><stop stop-opacity="1" stop-color="rgb(57.963562%, 22.0047%, 99.020386%)" offset="0.0585938"/><stop stop-opacity="1" stop-color="rgb(57.748413%, 22.192383%, 98.954773%)" offset="0.0625"/><stop stop-opacity="1" stop-color="rgb(57.531738%, 22.37854%, 98.88916%)" offset="0.0664063"/><stop stop-opacity="1" stop-color="rgb(57.316589%, 22.566223%, 98.823547%)" offset="0.0703125"/><stop stop-opacity="1" stop-color="rgb(57.099915%, 22.753906%, 98.757935%)" offset="0.0742188"/><stop stop-opacity="1" stop-color="rgb(56.88324%, 22.941589%, 98.693848%)" offset="0.078125"/><stop stop-opacity="1" stop-color="rgb(56.666565%, 23.129272%, 98.628235%)" offset="0.0820312"/><stop stop-opacity="1" stop-color="rgb(56.451416%, 23.316956%, 98.562622%)" offset="0.0859375"/><stop stop-opacity="1" stop-color="rgb(56.234741%, 23.503113%, 98.497009%)" offset="0.0898438"/><stop stop-opacity="1" stop-color="rgb(56.019592%, 23.690796%, 98.431396%)" offset="0.09375"/><stop stop-opacity="1" stop-color="rgb(55.802917%, 23.878479%, 98.365784%)" offset="0.0976563"/><stop stop-opacity="1" stop-color="rgb(55.587769%, 24.066162%, 98.301697%)" offset="0.101563"/><stop stop-opacity="1" stop-color="rgb(55.371094%, 24.252319%, 98.236084%)" offset="0.105469"/><stop stop-opacity="1" stop-color="rgb(55.154419%, 24.440002%, 98.170471%)" offset="0.109375"/><stop stop-opacity="1" stop-color="rgb(54.937744%, 24.627686%, 98.104858%)" offset="0.113281"/><stop stop-opacity="1" stop-color="rgb(54.722595%, 24.815369%, 98.039246%)" offset="0.117188"/><stop stop-opacity="1" stop-color="rgb(54.50592%, 25.003052%, 97.973633%)" offset="0.121094"/><stop stop-opacity="1" stop-color="rgb(54.290771%, 25.190735%, 97.909546%)" offset="0.125"/><stop stop-opacity="1" stop-color="rgb(54.074097%, 25.376892%, 97.843933%)" offset="0.128906"/><stop stop-opacity="1" stop-color="rgb(53.858948%, 25.564575%, 97.77832%)" offset="0.132813"/><stop stop-opacity="1" stop-color="rgb(53.642273%, 25.752258%, 97.712708%)" offset="0.136719"/><stop stop-opacity="1" stop-color="rgb(53.425598%, 25.939941%, 97.647095%)" offset="0.140625"/><stop stop-opacity="1" stop-color="rgb(53.208923%, 26.126099%, 97.581482%)" offset="0.144531"/><stop stop-opacity="1" stop-color="rgb(52.993774%, 26.313782%, 97.515869%)" offset="0.148438"/><stop stop-opacity="1" stop-color="rgb(52.7771%, 26.501465%, 97.450256%)" offset="0.152344"/><stop stop-opacity="1" stop-color="rgb(52.561951%, 26.689148%, 97.386169%)" offset="0.15625"/><stop stop-opacity="1" stop-color="rgb(52.345276%, 26.876831%, 97.320557%)" offset="0.160156"/><stop stop-opacity="1" stop-color="rgb(52.130127%, 27.064514%, 97.254944%)" offset="0.164063"/><stop stop-opacity="1" stop-color="rgb(51.913452%, 27.250671%, 97.189331%)" offset="0.167969"/><stop stop-opacity="1" stop-color="rgb(51.698303%, 27.438354%, 97.123718%)" offset="0.171875"/><stop stop-opacity="1" stop-color="rgb(51.481628%, 27.626038%, 97.058105%)" offset="0.175781"/><stop stop-opacity="1" stop-color="rgb(51.264954%, 27.813721%, 96.994019%)" offset="0.179688"/><stop stop-opacity="1" stop-color="rgb(51.048279%, 27.999878%, 96.928406%)" offset="0.183594"/><stop stop-opacity="1" stop-color="rgb(50.83313%, 28.187561%, 96.862793%)" offset="0.1875"/><stop stop-opacity="1" stop-color="rgb(50.616455%, 28.375244%, 96.79718%)" offset="0.191406"/><stop stop-opacity="1" stop-color="rgb(50.401306%, 28.562927%, 96.731567%)" offset="0.195313"/><stop stop-opacity="1" stop-color="rgb(50.184631%, 28.75061%, 96.665955%)" offset="0.199219"/><stop stop-opacity="1" stop-color="rgb(49.969482%, 28.938293%, 96.601868%)" offset="0.203125"/><stop stop-opacity="1" stop-color="rgb(49.752808%, 29.124451%, 96.536255%)" offset="0.207031"/><stop stop-opacity="1" stop-color="rgb(49.536133%, 29.312134%, 96.470642%)" offset="0.210938"/><stop stop-opacity="1" stop-color="rgb(49.319458%, 29.499817%, 96.405029%)" offset="0.214844"/><stop stop-opacity="1" stop-color="rgb(49.104309%, 29.6875%, 96.339417%)" offset="0.21875"/><stop stop-opacity="1" stop-color="rgb(48.887634%, 29.873657%, 96.273804%)" offset="0.222656"/><stop stop-opacity="1" stop-color="rgb(48.672485%, 30.06134%, 96.208191%)" offset="0.226562"/><stop stop-opacity="1" stop-color="rgb(48.455811%, 30.249023%, 96.142578%)" offset="0.230469"/><stop stop-opacity="1" stop-color="rgb(48.240662%, 30.436707%, 96.078491%)" offset="0.234375"/><stop stop-opacity="1" stop-color="rgb(48.023987%, 30.62439%, 96.012878%)" offset="0.238281"/><stop stop-opacity="1" stop-color="rgb(47.807312%, 30.812073%, 95.947266%)" offset="0.242188"/><stop stop-opacity="1" stop-color="rgb(47.590637%, 30.99823%, 95.881653%)" offset="0.246094"/><stop stop-opacity="1" stop-color="rgb(47.375488%, 31.185913%, 95.81604%)" offset="0.25"/><stop stop-opacity="1" stop-color="rgb(47.158813%, 31.373596%, 95.750427%)" offset="0.253906"/><stop stop-opacity="1" stop-color="rgb(46.943665%, 31.561279%, 95.68634%)" offset="0.257812"/><stop stop-opacity="1" stop-color="rgb(46.72699%, 31.747437%, 95.620728%)" offset="0.261719"/><stop stop-opacity="1" stop-color="rgb(46.511841%, 31.93512%, 95.555115%)" offset="0.265625"/><stop stop-opacity="1" stop-color="rgb(46.295166%, 32.122803%, 95.489502%)" offset="0.269531"/><stop stop-opacity="1" stop-color="rgb(46.080017%, 32.310486%, 95.423889%)" offset="0.273438"/><stop stop-opacity="1" stop-color="rgb(45.863342%, 32.498169%, 95.358276%)" offset="0.277344"/><stop stop-opacity="1" stop-color="rgb(45.646667%, 32.685852%, 95.294189%)" offset="0.28125"/><stop stop-opacity="1" stop-color="rgb(45.429993%, 32.872009%, 95.228577%)" offset="0.285156"/><stop stop-opacity="1" stop-color="rgb(45.214844%, 33.059692%, 95.162964%)" offset="0.289062"/><stop stop-opacity="1" stop-color="rgb(44.998169%, 33.247375%, 95.097351%)" offset="0.292969"/><stop stop-opacity="1" stop-color="rgb(44.78302%, 33.435059%, 95.031738%)" offset="0.296875"/><stop stop-opacity="1" stop-color="rgb(44.566345%, 33.621216%, 94.966125%)" offset="0.300781"/><stop stop-opacity="1" stop-color="rgb(44.351196%, 33.808899%, 94.900513%)" offset="0.304688"/><stop stop-opacity="1" stop-color="rgb(44.134521%, 33.996582%, 94.8349%)" offset="0.308594"/><stop stop-opacity="1" stop-color="rgb(43.917847%, 34.184265%, 94.770813%)" offset="0.3125"/><stop stop-opacity="1" stop-color="rgb(43.701172%, 34.371948%, 94.7052%)" offset="0.316406"/><stop stop-opacity="1" stop-color="rgb(43.486023%, 34.559631%, 94.639587%)" offset="0.320312"/><stop stop-opacity="1" stop-color="rgb(43.269348%, 34.745789%, 94.573975%)" offset="0.324219"/><stop stop-opacity="1" stop-color="rgb(43.054199%, 34.933472%, 94.508362%)" offset="0.328125"/><stop stop-opacity="1" stop-color="rgb(42.837524%, 35.121155%, 94.442749%)" offset="0.332031"/><stop stop-opacity="1" stop-color="rgb(42.622375%, 35.308838%, 94.378662%)" offset="0.335938"/><stop stop-opacity="1" stop-color="rgb(42.405701%, 35.496521%, 94.313049%)" offset="0.339844"/><stop stop-opacity="1" stop-color="rgb(42.189026%, 35.684204%, 94.247437%)" offset="0.34375"/><stop stop-opacity="1" stop-color="rgb(41.972351%, 35.870361%, 94.181824%)" offset="0.347656"/><stop stop-opacity="1" stop-color="rgb(41.757202%, 36.058044%, 94.116211%)" offset="0.351562"/><stop stop-opacity="1" stop-color="rgb(41.540527%, 36.245728%, 94.050598%)" offset="0.355469"/><stop stop-opacity="1" stop-color="rgb(41.325378%, 36.433411%, 93.986511%)" offset="0.359375"/><stop stop-opacity="1" stop-color="rgb(41.108704%, 36.619568%, 93.920898%)" offset="0.363281"/><stop stop-opacity="1" stop-color="rgb(40.893555%, 36.807251%, 93.855286%)" offset="0.367188"/><stop stop-opacity="1" stop-color="rgb(40.67688%, 36.994934%, 93.789673%)" offset="0.371094"/><stop stop-opacity="1" stop-color="rgb(40.461731%, 37.182617%, 93.72406%)" offset="0.375"/><stop stop-opacity="1" stop-color="rgb(40.245056%, 37.3703%, 93.658447%)" offset="0.378906"/><stop stop-opacity="1" stop-color="rgb(40.028381%, 37.557983%, 93.592834%)" offset="0.382812"/><stop stop-opacity="1" stop-color="rgb(39.811707%, 37.744141%, 93.527222%)" offset="0.386719"/><stop stop-opacity="1" stop-color="rgb(39.596558%, 37.931824%, 93.463135%)" offset="0.390625"/><stop stop-opacity="1" stop-color="rgb(39.379883%, 38.119507%, 93.397522%)" offset="0.394531"/><stop stop-opacity="1" stop-color="rgb(39.164734%, 38.30719%, 93.331909%)" offset="0.398438"/><stop stop-opacity="1" stop-color="rgb(38.948059%, 38.493347%, 93.266296%)" offset="0.402344"/><stop stop-opacity="1" stop-color="rgb(38.73291%, 38.68103%, 93.200684%)" offset="0.40625"/><stop stop-opacity="1" stop-color="rgb(38.516235%, 38.868713%, 93.135071%)" offset="0.410156"/><stop stop-opacity="1" stop-color="rgb(38.299561%, 39.056396%, 93.070984%)" offset="0.414062"/><stop stop-opacity="1" stop-color="rgb(38.082886%, 39.24408%, 93.005371%)" offset="0.417969"/><stop stop-opacity="1" stop-color="rgb(37.867737%, 39.431763%, 92.939758%)" offset="0.421875"/><stop stop-opacity="1" stop-color="rgb(37.651062%, 39.61792%, 92.874146%)" offset="0.425781"/><stop stop-opacity="1" stop-color="rgb(37.435913%, 39.805603%, 92.808533%)" offset="0.429688"/><stop stop-opacity="1" stop-color="rgb(37.219238%, 39.993286%, 92.74292%)" offset="0.433594"/><stop stop-opacity="1" stop-color="rgb(37.004089%, 40.180969%, 92.677307%)" offset="0.4375"/><stop stop-opacity="1" stop-color="rgb(36.787415%, 40.367126%, 92.611694%)" offset="0.441406"/><stop stop-opacity="1" stop-color="rgb(36.57074%, 40.55481%, 92.547607%)" offset="0.445312"/><stop stop-opacity="1" stop-color="rgb(36.354065%, 40.742493%, 92.481995%)" offset="0.449219"/><stop stop-opacity="1" stop-color="rgb(36.138916%, 40.930176%, 92.416382%)" offset="0.453125"/><stop stop-opacity="1" stop-color="rgb(35.922241%, 41.117859%, 92.350769%)" offset="0.457031"/><stop stop-opacity="1" stop-color="rgb(35.707092%, 41.305542%, 92.285156%)" offset="0.460938"/><stop stop-opacity="1" stop-color="rgb(35.490417%, 41.491699%, 92.219543%)" offset="0.464844"/><stop stop-opacity="1" stop-color="rgb(35.275269%, 41.679382%, 92.155457%)" offset="0.46875"/><stop stop-opacity="1" stop-color="rgb(35.058594%, 41.867065%, 92.089844%)" offset="0.472656"/><stop stop-opacity="1" stop-color="rgb(34.843445%, 42.054749%, 92.024231%)" offset="0.476562"/><stop stop-opacity="1" stop-color="rgb(34.62677%, 42.240906%, 91.958618%)" offset="0.480469"/><stop stop-opacity="1" stop-color="rgb(34.410095%, 42.428589%, 91.893005%)" offset="0.484375"/><stop stop-opacity="1" stop-color="rgb(34.197998%, 42.614746%, 91.828918%)" offset="0.488281"/><stop stop-opacity="1" stop-color="rgb(33.985901%, 42.800903%, 91.764832%)" offset="0.492188"/><stop stop-opacity="1" stop-color="rgb(33.781433%, 42.980957%, 91.703796%)" offset="0.496094"/><stop stop-opacity="1" stop-color="rgb(33.578491%, 43.162537%, 91.644287%)" offset="0.5"/><stop stop-opacity="1" stop-color="rgb(33.374023%, 43.34259%, 91.583252%)" offset="0.503906"/><stop stop-opacity="1" stop-color="rgb(33.169556%, 43.52417%, 91.523743%)" offset="0.507812"/><stop stop-opacity="1" stop-color="rgb(32.965088%, 43.704224%, 91.462708%)" offset="0.511719"/><stop stop-opacity="1" stop-color="rgb(32.762146%, 43.885803%, 91.401672%)" offset="0.515625"/><stop stop-opacity="1" stop-color="rgb(32.557678%, 44.065857%, 91.340637%)" offset="0.519531"/><stop stop-opacity="1" stop-color="rgb(32.354736%, 44.247437%, 91.281128%)" offset="0.523438"/><stop stop-opacity="1" stop-color="rgb(32.150269%, 44.42749%, 91.220093%)" offset="0.527344"/><stop stop-opacity="1" stop-color="rgb(31.947327%, 44.607544%, 91.160583%)" offset="0.53125"/><stop stop-opacity="1" stop-color="rgb(31.742859%, 44.787598%, 91.099548%)" offset="0.535156"/><stop stop-opacity="1" stop-color="rgb(31.539917%, 44.969177%, 91.038513%)" offset="0.539062"/><stop stop-opacity="1" stop-color="rgb(31.335449%, 45.149231%, 90.977478%)" offset="0.542969"/><stop stop-opacity="1" stop-color="rgb(31.132507%, 45.330811%, 90.917969%)" offset="0.546875"/><stop stop-opacity="1" stop-color="rgb(30.92804%, 45.510864%, 90.856934%)" offset="0.550781"/><stop stop-opacity="1" stop-color="rgb(30.725098%, 45.692444%, 90.797424%)" offset="0.554688"/><stop stop-opacity="1" stop-color="rgb(30.52063%, 45.872498%, 90.736389%)" offset="0.558594"/><stop stop-opacity="1" stop-color="rgb(30.317688%, 46.054077%, 90.675354%)" offset="0.5625"/><stop stop-opacity="1" stop-color="rgb(30.11322%, 46.234131%, 90.614319%)" offset="0.566406"/><stop stop-opacity="1" stop-color="rgb(29.910278%, 46.41571%, 90.55481%)" offset="0.570313"/><stop stop-opacity="1" stop-color="rgb(29.705811%, 46.595764%, 90.493774%)" offset="0.574219"/><stop stop-opacity="1" stop-color="rgb(29.501343%, 46.777344%, 90.434265%)" offset="0.578125"/><stop stop-opacity="1" stop-color="rgb(29.296875%, 46.957397%, 90.37323%)" offset="0.582031"/><stop stop-opacity="1" stop-color="rgb(29.093933%, 47.138977%, 90.312195%)" offset="0.585938"/><stop stop-opacity="1" stop-color="rgb(28.889465%, 47.319031%, 90.25116%)" offset="0.589844"/><stop stop-opacity="1" stop-color="rgb(28.686523%, 47.50061%, 90.19165%)" offset="0.59375"/><stop stop-opacity="1" stop-color="rgb(28.482056%, 47.680664%, 90.130615%)" offset="0.597656"/><stop stop-opacity="1" stop-color="rgb(28.279114%, 47.862244%, 90.071106%)" offset="0.601562"/><stop stop-opacity="1" stop-color="rgb(28.074646%, 48.042297%, 90.010071%)" offset="0.605469"/><stop stop-opacity="1" stop-color="rgb(27.871704%, 48.223877%, 89.949036%)" offset="0.609375"/><stop stop-opacity="1" stop-color="rgb(27.667236%, 48.403931%, 89.888%)" offset="0.613281"/><stop stop-opacity="1" stop-color="rgb(27.464294%, 48.58551%, 89.828491%)" offset="0.617188"/><stop stop-opacity="1" stop-color="rgb(27.259827%, 48.765564%, 89.767456%)" offset="0.621094"/><stop stop-opacity="1" stop-color="rgb(27.056885%, 48.947144%, 89.707947%)" offset="0.625"/><stop stop-opacity="1" stop-color="rgb(26.852417%, 49.127197%, 89.646912%)" offset="0.628906"/><stop stop-opacity="1" stop-color="rgb(26.649475%, 49.308777%, 89.585876%)" offset="0.632812"/><stop stop-opacity="1" stop-color="rgb(26.445007%, 49.488831%, 89.524841%)" offset="0.636719"/><stop stop-opacity="1" stop-color="rgb(26.242065%, 49.67041%, 89.465332%)" offset="0.640625"/><stop stop-opacity="1" stop-color="rgb(26.037598%, 49.850464%, 89.404297%)" offset="0.644531"/><stop stop-opacity="1" stop-color="rgb(25.834656%, 50.032043%, 89.344788%)" offset="0.648438"/><stop stop-opacity="1" stop-color="rgb(25.630188%, 50.212097%, 89.283752%)" offset="0.652344"/><stop stop-opacity="1" stop-color="rgb(25.42572%, 50.393677%, 89.224243%)" offset="0.65625"/><stop stop-opacity="1" stop-color="rgb(25.221252%, 50.57373%, 89.163208%)" offset="0.660156"/><stop stop-opacity="1" stop-color="rgb(25.018311%, 50.75531%, 89.102173%)" offset="0.664062"/><stop stop-opacity="1" stop-color="rgb(24.813843%, 50.935364%, 89.041138%)" offset="0.667969"/><stop stop-opacity="1" stop-color="rgb(24.610901%, 51.116943%, 88.981628%)" offset="0.671875"/><stop stop-opacity="1" stop-color="rgb(24.406433%, 51.296997%, 88.920593%)" offset="0.675781"/><stop stop-opacity="1" stop-color="rgb(24.203491%, 51.478577%, 88.861084%)" offset="0.679688"/><stop stop-opacity="1" stop-color="rgb(23.999023%, 51.65863%, 88.800049%)" offset="0.683594"/><stop stop-opacity="1" stop-color="rgb(23.796082%, 51.84021%, 88.739014%)" offset="0.6875"/><stop stop-opacity="1" stop-color="rgb(23.591614%, 52.020264%, 88.677979%)" offset="0.691406"/><stop stop-opacity="1" stop-color="rgb(23.388672%, 52.201843%, 88.618469%)" offset="0.695312"/><stop stop-opacity="1" stop-color="rgb(23.184204%, 52.381897%, 88.557434%)" offset="0.699219"/><stop stop-opacity="1" stop-color="rgb(22.981262%, 52.563477%, 88.497925%)" offset="0.703125"/><stop stop-opacity="1" stop-color="rgb(22.776794%, 52.74353%, 88.43689%)" offset="0.707031"/><stop stop-opacity="1" stop-color="rgb(22.573853%, 52.92511%, 88.375854%)" offset="0.710938"/><stop stop-opacity="1" stop-color="rgb(22.369385%, 53.105164%, 88.314819%)" offset="0.714844"/><stop stop-opacity="1" stop-color="rgb(22.166443%, 53.286743%, 88.25531%)" offset="0.71875"/><stop stop-opacity="1" stop-color="rgb(21.961975%, 53.466797%, 88.194275%)" offset="0.722656"/><stop stop-opacity="1" stop-color="rgb(21.759033%, 53.648376%, 88.134766%)" offset="0.726562"/><stop stop-opacity="1" stop-color="rgb(21.554565%, 53.82843%, 88.07373%)" offset="0.730469"/><stop stop-opacity="1" stop-color="rgb(21.350098%, 54.01001%, 88.012695%)" offset="0.734375"/><stop stop-opacity="1" stop-color="rgb(21.14563%, 54.190063%, 87.95166%)" offset="0.738281"/><stop stop-opacity="1" stop-color="rgb(20.942688%, 54.371643%, 87.892151%)" offset="0.742188"/><stop stop-opacity="1" stop-color="rgb(20.73822%, 54.551697%, 87.831116%)" offset="0.746094"/><stop stop-opacity="1" stop-color="rgb(20.535278%, 54.733276%, 87.771606%)" offset="0.75"/><stop stop-opacity="1" stop-color="rgb(20.330811%, 54.91333%, 87.710571%)" offset="0.753906"/><stop stop-opacity="1" stop-color="rgb(20.127869%, 55.09491%, 87.649536%)" offset="0.757812"/><stop stop-opacity="1" stop-color="rgb(19.923401%, 55.274963%, 87.588501%)" offset="0.761719"/><stop stop-opacity="1" stop-color="rgb(19.720459%, 55.456543%, 87.528992%)" offset="0.765625"/><stop stop-opacity="1" stop-color="rgb(19.515991%, 55.636597%, 87.467957%)" offset="0.769531"/><stop stop-opacity="1" stop-color="rgb(19.313049%, 55.818176%, 87.408447%)" offset="0.773438"/><stop stop-opacity="1" stop-color="rgb(19.108582%, 55.99823%, 87.347412%)" offset="0.777344"/><stop stop-opacity="1" stop-color="rgb(18.90564%, 56.17981%, 87.286377%)" offset="0.78125"/><stop stop-opacity="1" stop-color="rgb(18.701172%, 56.359863%, 87.225342%)" offset="0.785156"/><stop stop-opacity="1" stop-color="rgb(18.49823%, 56.541443%, 87.165833%)" offset="0.789062"/><stop stop-opacity="1" stop-color="rgb(18.293762%, 56.721497%, 87.104797%)" offset="0.792969"/><stop stop-opacity="1" stop-color="rgb(18.09082%, 56.903076%, 87.045288%)" offset="0.796875"/><stop stop-opacity="1" stop-color="rgb(17.886353%, 57.08313%, 86.984253%)" offset="0.800781"/><stop stop-opacity="1" stop-color="rgb(17.683411%, 57.264709%, 86.923218%)" offset="0.804688"/><stop stop-opacity="1" stop-color="rgb(17.478943%, 57.444763%, 86.862183%)" offset="0.808594"/><stop stop-opacity="1" stop-color="rgb(17.274475%, 57.626343%, 86.802673%)" offset="0.8125"/><stop stop-opacity="1" stop-color="rgb(17.070007%, 57.806396%, 86.741638%)" offset="0.816406"/><stop stop-opacity="1" stop-color="rgb(16.867065%, 57.987976%, 86.682129%)" offset="0.820312"/><stop stop-opacity="1" stop-color="rgb(16.662598%, 58.16803%, 86.621094%)" offset="0.824219"/><stop stop-opacity="1" stop-color="rgb(16.459656%, 58.349609%, 86.560059%)" offset="0.828125"/><stop stop-opacity="1" stop-color="rgb(16.255188%, 58.529663%, 86.499023%)" offset="0.832031"/><stop stop-opacity="1" stop-color="rgb(16.052246%, 58.711243%, 86.439514%)" offset="0.835938"/><stop stop-opacity="1" stop-color="rgb(15.847778%, 58.891296%, 86.378479%)" offset="0.839844"/><stop stop-opacity="1" stop-color="rgb(15.644836%, 59.072876%, 86.31897%)" offset="0.84375"/><stop stop-opacity="1" stop-color="rgb(15.440369%, 59.25293%, 86.257935%)" offset="0.847656"/><stop stop-opacity="1" stop-color="rgb(15.237427%, 59.434509%, 86.196899%)" offset="0.851562"/><stop stop-opacity="1" stop-color="rgb(15.032959%, 59.614563%, 86.135864%)" offset="0.855469"/><stop stop-opacity="1" stop-color="rgb(14.830017%, 59.796143%, 86.076355%)" offset="0.859375"/><stop stop-opacity="1" stop-color="rgb(14.625549%, 59.976196%, 86.01532%)" offset="0.863281"/><stop stop-opacity="1" stop-color="rgb(14.422607%, 60.157776%, 85.955811%)" offset="0.867188"/><stop stop-opacity="1" stop-color="rgb(14.21814%, 60.33783%, 85.894775%)" offset="0.871094"/><stop stop-opacity="1" stop-color="rgb(14.015198%, 60.519409%, 85.83374%)" offset="0.875"/><stop stop-opacity="1" stop-color="rgb(13.81073%, 60.699463%, 85.772705%)" offset="0.878906"/><stop stop-opacity="1" stop-color="rgb(13.606262%, 60.881042%, 85.713196%)" offset="0.882812"/><stop stop-opacity="1" stop-color="rgb(13.401794%, 61.061096%, 85.652161%)" offset="0.886719"/><stop stop-opacity="1" stop-color="rgb(13.198853%, 61.24115%, 85.592651%)" offset="0.890625"/><stop stop-opacity="1" stop-color="rgb(12.994385%, 61.421204%, 85.531616%)" offset="0.894531"/><stop stop-opacity="1" stop-color="rgb(12.791443%, 61.602783%, 85.470581%)" offset="0.898438"/><stop stop-opacity="1" stop-color="rgb(12.586975%, 61.782837%, 85.409546%)" offset="0.902344"/><stop stop-opacity="1" stop-color="rgb(12.384033%, 61.964417%, 85.350037%)" offset="0.90625"/><stop stop-opacity="1" stop-color="rgb(12.179565%, 62.14447%, 85.289001%)" offset="0.910156"/><stop stop-opacity="1" stop-color="rgb(11.976624%, 62.32605%, 85.229492%)" offset="0.914062"/><stop stop-opacity="1" stop-color="rgb(11.772156%, 62.506104%, 85.168457%)" offset="0.917969"/><stop stop-opacity="1" stop-color="rgb(11.569214%, 62.687683%, 85.107422%)" offset="0.921875"/><stop stop-opacity="1" stop-color="rgb(11.364746%, 62.867737%, 85.046387%)" offset="0.925781"/><stop stop-opacity="1" stop-color="rgb(11.161804%, 63.049316%, 84.986877%)" offset="0.929687"/><stop stop-opacity="1" stop-color="rgb(10.957336%, 63.22937%, 84.925842%)" offset="0.933594"/><stop stop-opacity="1" stop-color="rgb(10.754395%, 63.41095%, 84.866333%)" offset="0.9375"/><stop stop-opacity="1" stop-color="rgb(10.549927%, 63.591003%, 84.805298%)" offset="0.941406"/><stop stop-opacity="1" stop-color="rgb(10.346985%, 63.772583%, 84.744263%)" offset="0.945312"/><stop stop-opacity="1" stop-color="rgb(10.142517%, 63.952637%, 84.683228%)" offset="0.949219"/><stop stop-opacity="1" stop-color="rgb(9.939575%, 64.134216%, 84.623718%)" offset="0.953125"/><stop stop-opacity="1" stop-color="rgb(9.735107%, 64.31427%, 84.562683%)" offset="0.957031"/><stop stop-opacity="1" stop-color="rgb(9.53064%, 64.49585%, 84.503174%)" offset="0.960938"/><stop stop-opacity="1" stop-color="rgb(9.326172%, 64.675903%, 84.442139%)" offset="0.964844"/><stop stop-opacity="1" stop-color="rgb(9.12323%, 64.857483%, 84.381104%)" offset="0.96875"/><stop stop-opacity="1" stop-color="rgb(8.918762%, 65.037537%, 84.320068%)" offset="0.972656"/><stop stop-opacity="1" stop-color="rgb(8.71582%, 65.219116%, 84.260559%)" offset="0.976562"/><stop stop-opacity="1" stop-color="rgb(8.511353%, 65.39917%, 84.199524%)" offset="0.980469"/><stop stop-opacity="1" stop-color="rgb(8.308411%, 65.58075%, 84.140015%)" offset="0.984375"/><stop stop-opacity="1" stop-color="rgb(8.103943%, 65.760803%, 84.078979%)" offset="0.988281"/><stop stop-opacity="1" stop-color="rgb(7.901001%, 65.942383%, 84.017944%)" offset="0.992188"/><stop stop-opacity="1" stop-color="rgb(7.699585%, 66.120911%, 83.958435%)" offset="0.996094"/><stop stop-opacity="1" stop-color="rgb(7.499695%, 66.299438%, 83.898926%)" offset="1"/></linearGradient></defs><rect x="-144" width="1728" fill="#ffffff" y="-80.999999" height="971.999992" fill-opacity="1"/><rect x="-144" width="1728" fill="#ffffff" y="-80.999999" height="971.999992" fill-opacity="1"/><g clip-path="url(#88aff5c88c)"><g clip-path="url(#0221d64e94)"><path fill="url(#395f696f2d)" d="M 564.492188 243 L 564.492188 553.824219 L 875.550781 553.824219 L 875.550781 243 Z M 564.492188 243 " fill-rule="nonzero"/></g></g></svg>